<svg width="221" height="212" viewBox="0 0 221 212" fill="none" xmlns="http://www.w3.org/2000/svg">
<g clip-path="url(#clip0_556_682)">
<path d="M199.021 205.386C199.857 205.438 200.32 204.399 199.687 203.793L199.624 203.543C199.632 203.522 199.64 203.502 199.649 203.482C200.495 201.465 203.363 201.479 204.203 203.499C204.947 205.293 205.896 207.089 206.129 208.985C206.234 209.822 206.187 210.675 206.001 211.496C207.746 207.685 208.664 203.524 208.664 199.339C208.664 198.287 208.607 197.236 208.489 196.187C208.392 195.329 208.259 194.476 208.086 193.631C207.152 189.064 205.13 184.715 202.212 181.082C200.81 180.315 199.64 179.117 198.934 177.681C198.68 177.163 198.481 176.606 198.387 176.039C198.547 176.06 198.989 173.63 198.869 173.48C199.091 173.143 199.489 172.975 199.732 172.646C200.94 171.009 202.605 171.295 203.473 173.52C205.33 174.456 205.348 176.01 204.209 177.503C203.484 178.454 203.385 179.74 202.749 180.757C202.814 180.841 202.882 180.922 202.948 181.006C204.147 182.544 205.185 184.197 206.059 185.934C205.812 184.003 206.177 181.678 206.799 180.179C207.507 178.471 208.834 177.033 210.003 175.556C211.407 173.783 214.286 174.557 214.534 176.805C214.536 176.827 214.539 176.849 214.541 176.87C214.367 176.968 214.197 177.072 214.031 177.182C213.083 177.809 213.411 179.277 214.534 179.451L214.559 179.455C214.496 180.08 214.389 180.7 214.232 181.309C215.732 187.106 212.494 189.218 207.872 189.313C207.77 189.365 207.67 189.417 207.568 189.467C208.036 190.785 208.411 192.138 208.688 193.508C208.937 194.719 209.109 195.943 209.206 197.173C209.326 198.724 209.316 200.283 209.185 201.831L209.193 201.776C209.525 200.071 210.451 198.478 211.796 197.374C213.8 195.729 216.63 195.123 218.791 193.801C219.832 193.164 221.165 193.987 220.983 195.193L220.975 195.25C220.653 195.381 220.339 195.533 220.035 195.703C219.862 195.801 219.692 195.905 219.525 196.015C218.578 196.641 218.905 198.11 220.028 198.283L220.054 198.287C220.072 198.29 220.088 198.292 220.106 198.295C219.554 199.605 218.785 200.822 217.822 201.87C216.884 206.931 212.857 207.412 208.549 205.938H208.547C208.076 207.988 207.388 209.992 206.503 211.901H199.204C199.177 211.82 199.154 211.737 199.13 211.655C199.805 211.697 200.486 211.658 201.15 211.535C200.609 210.871 200.067 210.201 199.525 209.537C199.512 209.524 199.502 209.511 199.491 209.498C199.217 209.158 198.939 208.82 198.665 208.48L198.664 208.48C198.647 207.436 198.772 206.396 199.02 205.386L199.021 205.386V205.386Z" fill="#F2F2F2"/>
<path d="M64.7136 211.518C64.7136 211.785 64.9283 212 65.1957 212H220.461C220.728 212 220.943 211.785 220.943 211.518C220.943 211.251 220.728 211.036 220.461 211.036H65.1957C64.9283 211.036 64.7136 211.251 64.7136 211.518Z" fill="#CCCCCC"/>
<path d="M88.2736 211.795H16.8064C8.09227 211.795 1.00269 204.707 1.00269 195.995V42.4529C1.00269 33.7413 8.09227 26.6538 16.8064 26.6538H88.2736C96.9877 26.6538 104.077 33.7413 104.077 42.4529V195.995C104.077 204.707 96.9877 211.795 88.2736 211.795Z" fill="#3F3D56"/>
<path d="M104.078 83.1318C103.709 83.1318 103.409 83.4316 103.409 83.8002V105.188C103.409 105.557 103.709 105.857 104.078 105.857C104.446 105.857 104.746 105.557 104.746 105.188V83.8002C104.746 83.4316 104.446 83.1318 104.078 83.1318Z" fill="#3F3D56"/>
<path d="M102.573 42.453V195.993C102.573 203.576 96.6698 209.778 89.2051 210.259H89.2018C89.0914 210.266 88.9811 210.273 88.8675 210.276C88.6702 210.286 88.473 210.289 88.2725 210.289C88.2725 210.289 87.537 210.236 86.1932 210.136C84.836 210.035 82.8603 209.885 80.3966 209.688C79.6579 209.631 78.879 209.568 78.0566 209.501C76.4186 209.367 74.6201 209.22 72.6913 209.053C71.9224 208.989 71.1268 208.919 70.3145 208.849C66.1627 208.492 61.5127 208.074 56.6087 207.599C55.7797 207.522 54.944 207.442 54.1015 207.359C53.8809 207.335 53.6569 207.315 53.433 207.292C49.9363 206.948 2.50732 197.784 2.50732 195.993V42.453C2.50732 34.5561 8.90895 28.1564 16.8082 28.1564H25.3459C26.7098 28.1564 27.8062 29.2191 27.9232 30.5793C27.9333 30.6695 27.9433 30.7597 27.96 30.85C28.2074 32.2168 29.461 33.1693 30.8516 33.1693H74.229C75.6197 33.1693 76.8732 32.2168 77.1206 30.85C77.1373 30.7597 77.1473 30.6695 77.1574 30.5793C77.2744 29.2191 78.3708 28.1564 79.7347 28.1564H88.2725C96.1717 28.1564 102.573 34.5561 102.573 42.453Z" fill="white"/>
<path d="M0.668574 67.0907C0.299845 67.0907 0 67.3905 0 67.7591V73.1061C0 73.4748 0.299849 73.7745 0.668574 73.7745C1.0373 73.7745 1.33715 73.4748 1.33715 73.1061V67.7591C1.33715 67.3905 1.0373 67.0907 0.668574 67.0907Z" fill="#3F3D56"/>
<path d="M0.668574 83.1318C0.299845 83.1318 0 83.4316 0 83.8002V94.1601C0 94.5287 0.299849 94.8284 0.668574 94.8284C1.0373 94.8284 1.33715 94.5287 1.33715 94.1601V83.8002C1.33715 83.4316 1.0373 83.1318 0.668574 83.1318Z" fill="#3F3D56"/>
<path d="M0.668574 97.8362C0.299845 97.8362 0 98.1359 0 98.5045V108.864C0 109.233 0.299849 109.533 0.668574 109.533C1.0373 109.533 1.33715 109.233 1.33715 108.864V98.5045C1.33715 98.1359 1.0373 97.8362 0.668574 97.8362Z" fill="#3F3D56"/>
<path d="M25.113 30.4971H12.3271C12.2577 30.4971 12.2014 30.5533 12.2014 30.6227V32.0424C12.2014 32.1118 12.2577 32.168 12.3271 32.168H25.113C25.1824 32.168 25.2386 32.1118 25.2386 32.0424V30.6227C25.2386 30.5533 25.1824 30.4971 25.113 30.4971Z" fill="#E6E6E6"/>
<path d="M81.8472 32.168C82.5856 32.168 83.1843 31.5695 83.1843 30.8312C83.1843 30.093 82.5856 29.4945 81.8472 29.4945C81.1087 29.4945 80.51 30.093 80.51 30.8312C80.51 31.5695 81.1087 32.168 81.8472 32.168Z" fill="#E6E6E6"/>
<path d="M85.5244 32.168C86.2629 32.168 86.8616 31.5695 86.8616 30.8312C86.8616 30.093 86.2629 29.4945 85.5244 29.4945C84.7859 29.4945 84.1873 30.093 84.1873 30.8312C84.1873 31.5695 84.7859 32.168 85.5244 32.168Z" fill="#E6E6E6"/>
<path d="M89.2017 32.168C89.9401 32.168 90.5388 31.5695 90.5388 30.8312C90.5388 30.093 89.9401 29.4945 89.2017 29.4945C88.4632 29.4945 87.8645 30.093 87.8645 30.8312C87.8645 31.5695 88.4632 32.168 89.2017 32.168Z" fill="#E6E6E6"/>
<path d="M80.7291 120.889H24.0171C23.1236 120.889 22.3967 120.162 22.3967 119.269C22.3967 118.376 23.1236 117.649 24.0171 117.649H80.7291C81.6226 117.649 82.3494 118.376 82.3494 119.269C82.3494 120.162 81.6226 120.889 80.7291 120.889Z" fill="#E6E6E6"/>
<path d="M52.5763 183.659C65.5522 183.659 76.0713 173.143 76.0713 160.17C76.0713 147.198 65.5522 136.682 52.5763 136.682C39.6004 136.682 29.0813 147.198 29.0813 160.17C29.0813 173.143 39.6004 183.659 52.5763 183.659Z" fill="#17B978"/>
<path d="M56.3105 152.501C54.3276 152.583 52.086 152.719 50.6204 154.24C49.3472 155.561 49.0682 157.522 50.3593 158.933C51.6539 160.348 53.6667 160.539 55.1589 161.642C56.9111 162.938 56.6545 165.501 54.9588 166.729C52.9593 168.178 50.3777 167.502 48.5497 166.125C48.0813 165.772 47.6266 166.562 48.0897 166.911C49.7274 168.146 51.8645 168.833 53.8895 168.242C55.717 167.709 57.1337 166.219 57.2778 164.282C57.3465 163.357 57.0835 162.418 56.5083 161.688C55.901 160.917 55.0264 160.443 54.1423 160.057C52.6203 159.393 49.9996 158.533 50.4421 156.371C50.9785 153.749 54.1704 153.5 56.3105 153.413C56.8949 153.389 56.898 152.477 56.3105 152.501L56.3105 152.501Z" fill="white"/>
<path d="M52.6321 151.261L52.5447 171.264C52.5421 171.85 53.4536 171.851 53.4561 171.264L53.5435 151.261C53.5461 150.675 52.6346 150.674 52.6321 151.261Z" fill="white"/>
<path d="M177.057 0H61.2189C56.9696 0 53.5142 3.45435 53.5142 7.70244V87.0596C53.5142 91.3077 56.9696 94.7621 61.2189 94.7621H177.057C181.307 94.7621 184.762 91.3077 184.762 87.0596V7.70244C184.762 3.45435 181.307 0 177.057 0Z" fill="white"/>
<path d="M118.605 47.1849C125.764 47.1849 131.568 41.383 131.568 34.226C131.568 27.069 125.764 21.2671 118.605 21.2671C111.446 21.2671 105.643 27.069 105.643 34.226C105.643 41.383 111.446 47.1849 118.605 47.1849Z" fill="#17B978"/>
<path d="M121.064 28.4431C119.46 28.5092 117.653 28.6109 116.44 29.8047C115.434 30.7935 115.083 32.3329 116.007 33.4972C116.979 34.723 118.597 34.9556 119.867 35.739C120.656 36.2259 121.179 36.9635 121.196 37.9113C121.212 38.7988 120.802 39.6279 120.117 40.1841C118.437 41.5487 116.146 40.9838 114.556 39.7904C114.243 39.5556 113.94 40.0827 114.249 40.3149C115.566 41.3033 117.261 41.8774 118.899 41.4521C120.407 41.0606 121.622 39.8747 121.785 38.2901C121.957 36.6199 120.86 35.4827 119.438 34.8302C118.138 34.2339 115.857 33.5985 116.072 31.7458C116.346 29.3903 119.23 29.1261 121.064 29.0506C121.454 29.0345 121.456 28.427 121.064 28.4431V28.4431Z" fill="white"/>
<path d="M118.276 27.3416L118.203 44.0093C118.201 44.4002 118.809 44.4007 118.811 44.0093L118.884 27.3416C118.885 26.9507 118.278 26.9502 118.276 27.3416Z" fill="white"/>
<path d="M177.057 0H61.2189C56.9696 0 53.5142 3.45435 53.5142 7.70244V87.0596C53.5142 91.3077 56.9696 94.7621 61.2189 94.7621H177.057C181.307 94.7621 184.762 91.3077 184.762 87.0596V7.70244C184.762 3.45435 181.307 0 177.057 0ZM183.952 87.0596C183.952 90.8623 180.861 93.9521 177.057 93.9521H61.2189C57.4151 93.9521 54.3243 90.8623 54.3243 87.0596V7.70244C54.3243 3.89983 57.4151 0.809932 61.2189 0.809932H177.057C180.861 0.809932 183.952 3.89982 183.952 7.70244V87.0596Z" fill="#3F3D56"/>
<path d="M105.782 7.83609H94.4157C93.8445 7.83609 93.3787 8.30181 93.3787 8.8728C93.3787 9.44785 93.8445 9.91357 94.4157 9.91357H105.782C106.354 9.91357 106.819 9.44785 106.819 8.8728C106.819 8.30181 106.354 7.83609 105.782 7.83609Z" fill="#E6E6E6"/>
<path d="M124.821 7.83609H113.455C112.884 7.83609 112.418 8.30181 112.418 8.8728C112.418 9.44785 112.884 9.91357 113.455 9.91357H124.821C125.393 9.91357 125.859 9.44785 125.859 8.8728C125.859 8.30181 125.393 7.83609 124.821 7.83609Z" fill="#E6E6E6"/>
<path d="M143.861 7.83609H132.494C131.923 7.83609 131.457 8.30181 131.457 8.8728C131.457 9.44785 131.923 9.91357 132.494 9.91357H143.861C144.432 9.91357 144.898 9.44785 144.898 8.8728C144.898 8.30181 144.432 7.83609 143.861 7.83609Z" fill="#E6E6E6"/>
<path d="M162.608 54.4743H75.6682C72.0508 54.4743 69.1099 57.4144 69.1099 61.0307V66.9513C69.1099 70.5677 72.0508 73.5077 75.6682 73.5077H162.608C166.225 73.5077 169.166 70.5677 169.166 66.9513V61.0307C169.166 57.4144 166.225 54.4743 162.608 54.4743Z" fill="#17B978"/>
<path d="M29.6439 85.647L26.3101 84.0682C27.6774 85.976 28.8557 88.9554 29.4865 91.3262C30.5545 89.1178 32.2762 86.4156 33.9804 84.8015L30.4569 85.7076C32.6281 75.07 40.7944 67.4332 50.1459 67.4332V66.6233C40.378 66.6233 31.8607 74.5799 29.6439 85.647Z" fill="#3F3D56"/>
<path d="M44.9883 101.855H23.9238C23.0304 101.855 22.3035 101.129 22.3035 100.235C22.3035 99.3423 23.0304 98.6156 23.9238 98.6156H44.9883C45.8817 98.6156 46.6086 99.3423 46.6086 100.235C46.6086 101.129 45.8817 101.855 44.9883 101.855Z" fill="#E6E6E6"/>
<path d="M185.116 96.5796L184.903 113.118L180.787 127.861L177.497 126.634L178.958 113.12L178.766 94.8332L185.116 96.5796Z" fill="#FFB6B6"/>
<path d="M180.773 130.238C181.159 128.118 180.451 126.214 179.192 125.985C177.933 125.756 176.599 127.288 176.213 129.408C175.827 131.528 176.535 133.433 177.794 133.662C179.053 133.891 180.387 132.358 180.773 130.238Z" fill="#FFB6B6"/>
<path d="M180.121 76.8874C180.121 76.8874 187.172 76.9845 187.166 80.7291C187.163 82.8434 186.709 102.04 185.445 113.701C184.47 122.694 182.609 125.04 182.609 125.04L178.153 114.916L180.121 76.8874Z" fill="#E6E6E6"/>
<path d="M179.94 110.677H156.125C158.122 106.224 159.349 101.983 157.43 98.6101L179.94 97.3056C178.815 101.859 178.677 106.328 179.94 110.677Z" fill="#FFB6B6"/>
<path d="M177.004 71.2158L167.543 70.5635L163.629 75.4554L161.644 75.8161C158.669 76.3568 156.551 79.0108 156.684 82.0306L157.456 99.5708L180.068 101.219L185.485 78.3781L178.961 75.7815L177.004 71.2158V71.2158Z" fill="#E6E6E6"/>
<path d="M119.31 76.5069C119.982 77.1106 120.461 77.8157 120.714 78.4996L127.471 83.8462L124.832 86.9863L118.262 81.2246C117.555 81.0451 116.803 80.643 116.132 80.0394C114.598 78.6604 114.067 76.7517 114.945 75.7763C115.822 74.8008 117.777 75.1279 119.31 76.5069L119.31 76.5069Z" fill="#FFB6B6"/>
<path d="M167.085 81.008V81.0081L141.193 98.4862L122.634 85.5742L125.42 80.5284L140.027 89.0151L153.498 78.6745C158.295 74.17 164.308 75.0432 167.085 81.008H167.085Z" fill="#E6E6E6"/>
<path d="M171.712 69.0987C175.589 69.0987 178.731 65.9573 178.731 62.0823C178.731 58.2072 175.589 55.0658 171.712 55.0658C167.836 55.0658 164.694 58.2072 164.694 62.0823C164.694 65.9573 167.836 69.0987 171.712 69.0987Z" fill="#FFB6B6"/>
<path d="M181.252 60.3585V61.7192L173.337 59.4919L167.402 60.7351C167.333 59.832 167.066 58.9451 166.62 58.1595C166.93 59.4196 166.965 60.3944 166.636 60.8971L165.838 61.0631C165.709 60.7108 165.458 60.403 165.13 60.2167C165.097 60.1965 165.057 60.1803 165.02 60.1924C164.963 60.2127 164.959 60.2856 164.959 60.3423C164.968 60.6419 164.976 60.9416 164.988 61.2413L162.695 61.7192V60.3585C160.495 55.4106 166.293 51.1292 171.975 51.0848C174.54 51.0647 176.857 52.1215 178.538 53.798C180.215 55.4786 181.252 57.795 181.252 60.3585Z" fill="#2F2E41"/>
<path d="M185.705 76.3135L185.107 76.264C185.15 76.0686 185.192 75.8756 185.231 75.6802C185.562 74.0403 184.833 71.9527 184.78 70.377C184.498 72.0417 184.98 74.0898 184.482 75.6703C184.426 75.846 182.263 76.9793 182.204 77.1524C179.81 76.2773 177.317 73.481 174.495 75.1142C172.825 76.0802 170.92 75.6568 169.025 75.2145C168.556 75.105 168.49 72.7888 168.026 72.6978C167.194 72.5348 165.973 74.6404 165.19 74.7226L168.431 62.1687C168.431 55.3393 167.798 48.1741 176.452 50.589C178.628 51.1963 180.782 51.6724 182.389 53.4681C183.995 55.2664 185.139 57.7794 185.544 60.6413C185.788 62.3678 187.313 68.23 185.705 76.3135Z" fill="#2F2E41"/>
<path d="M180.117 202.556L176.253 202.647L174.1 185.297L179.801 185.162L180.117 202.556Z" fill="#FFB7B7"/>
<path d="M166.863 210.613C166.863 211.266 167.326 211.795 167.897 211.795H175.565C175.565 211.795 176.32 208.762 179.396 207.457L179.609 211.795H183.564L183.085 204.82C183.085 204.82 184.143 201.089 181.946 199.182C179.748 197.275 181.528 197.54 181.528 197.54L180.664 193.223L174.686 193.926L174.642 200.702L171.741 207.428L167.487 209.529C167.108 209.716 166.863 210.142 166.863 210.613H166.863H166.863Z" fill="#2F2E41"/>
<path d="M168.364 199.729L164.65 200.797L158.163 184.561L163.643 182.984L168.364 199.729Z" fill="#FFB7B7"/>
<path d="M157.589 210.884C157.755 211.516 158.337 211.91 158.889 211.765L166.306 209.819C166.306 209.819 166.266 206.695 168.911 204.652L170.217 208.794L174.044 207.79L171.81 201.166C171.81 201.166 171.886 197.288 169.276 196.001C166.667 194.713 168.456 194.519 168.456 194.519L166.524 190.563L160.92 192.759L162.598 199.324L161.499 206.566L157.917 209.677C157.598 209.954 157.469 210.429 157.589 210.884L157.589 210.884L157.589 210.884Z" fill="#2F2E41"/>
<path d="M177.748 109.652L180.179 110.462C183.979 117.478 185.59 126.795 185.376 138.031L181.059 188.494H173.996L168.827 132.276L159.712 153.377L166.381 188.494L159.712 189.174L146.281 152.658L155.635 110.216L177.748 109.652Z" fill="#2F2E41"/>
</g>
<defs>
<clipPath id="clip0_556_682">
<rect width="221" height="212" fill="white"/>
</clipPath>
</defs>
</svg>
